<svg width="320" height="160" viewBox="0 0 320 160" fill="none" xmlns="http://www.w3.org/2000/svg">
<path d="M240.312 39.1875C238.896 39.1875 237.583 38.9792 236.375 38.5625C235.208 38.1042 234.188 37.4583 233.312 36.625C231.479 34.875 230.562 32.5208 230.562 29.5625C230.562 26.7292 231.646 24.3333 233.812 22.375C235.896 20.4167 238.396 19.4375 241.312 19.4375C244.229 19.4375 246.562 20.3125 248.312 22.0625C250.062 23.8125 250.938 26.1875 250.938 29.1875C250.938 32.0208 249.896 34.4167 247.812 36.375C245.771 38.25 243.271 39.1875 240.312 39.1875ZM236.5 127C230.083 127 226.875 125.542 226.875 122.625C226.875 121.125 227.208 119.958 227.875 119.125C228.875 119.458 229.792 119.625 230.625 119.625C234.5 119.625 236.396 117.167 236.312 112.25V70.375C236.312 67.4583 235.896 65.4375 235.062 64.3125C234.271 63.1458 232.833 62.5625 230.75 62.5625C229.208 62.5625 227.812 62.75 226.562 63.125C225.812 63.2083 225.271 62.625 224.938 61.375C224.646 60.25 224.812 59.2708 225.438 58.4375C226.062 57.5625 227.021 56.6667 228.312 55.75C229.646 54.7917 231.104 53.9583 232.688 53.25C236.104 51.625 238.958 50.8125 241.25 50.8125C243.542 50.8125 245.229 51.1458 246.312 51.8125C247.438 52.4792 248.292 53.375 248.875 54.5C249.792 56.3333 250.25 59.2917 250.25 63.375V113.312C250.375 116.604 251.562 118.604 253.812 119.312C254.438 119.521 255.208 119.708 256.125 119.875C257.042 120.042 257.854 120.25 258.562 120.5C259.312 120.708 259.896 120.958 260.312 121.25C261.021 121.792 261.375 122.667 261.375 123.875C261.375 125.375 261.062 126.521 260.438 127.312C259.562 127.104 258.229 127 256.438 127H236.5ZM292.125 84.375L292.062 100.812C292.062 107.688 292.417 111.833 293.125 113.25C293.833 114.625 294.667 115.458 295.625 115.75C296.583 116 297.812 116.125 299.312 116.125C300.812 116.125 302.167 116.021 303.375 115.812C304.625 115.562 305.792 115.25 306.875 114.875C307.958 114.5 309 114.083 310 113.625L313.062 112.312C313.771 112.062 314.562 112.792 315.438 114.5C315.688 114.958 315.812 115.5 315.812 116.125C315.812 116.708 315.562 117.479 315.062 118.438C314.562 119.396 313.583 120.5 312.125 121.75C310.708 122.958 309.042 124.042 307.125 125C302.958 127.125 299.208 128.188 295.875 128.188C292.583 128.188 289.896 128 287.812 127.625C285.729 127.25 283.958 126.5 282.5 125.375C279.5 123.042 278 118.771 278 112.562V63.375H271.812C270.521 63.375 269.583 62.9583 269 62.125C268 60.8333 267.5 59.75 267.5 58.875C267.5 57.4167 267.854 56.6042 268.562 56.4375C275.188 55.3125 279.875 50.3958 282.625 41.6875C283.417 39.0625 284.042 35.9583 284.5 32.375C286.5 32.0417 288 31.875 289 31.875C290.042 31.875 290.938 32.3958 291.688 33.4375C292.438 34.4792 292.792 35.6875 292.75 37.0625C292.75 38.4375 292.729 39.7292 292.688 40.9375C292.646 42.1458 292.604 43.4583 292.562 44.875L292.312 53.625H313.938C314.479 54.5833 314.75 55.6042 314.75 56.6875V58.625C314.75 60.375 313.812 61.8125 311.938 62.9375C310.062 64.0208 307.979 64.5625 305.688 64.5625C303.438 64.5625 301.812 64.5417 300.812 64.5C299.854 64.4167 298.917 64.3333 298 64.25L295.25 63.875C294.292 63.7917 293.271 63.7083 292.188 63.625V64.3125L292.125 84.375Z" fill="url(#paint0_linear_1_6)"/>
<path d="M41.3125 127.312C40.4375 127.104 39.1042 127 37.3125 127H16.125C12.125 127 9.5625 126.292 8.4375 124.875C7.97917 124.333 7.75 123.708 7.75 123C7.75 121.25 8.08333 119.958 8.75 119.125C9.75 119.458 10.6667 119.625 11.5 119.625C12.375 119.625 13.1042 119.521 13.6875 119.312C14.2708 119.062 14.7292 118.667 15.0625 118.125C15.6458 117.125 15.9375 115.167 15.9375 112.25V71.375C15.9375 67.4583 15.2083 65.0208 13.75 64.0625C13.1667 63.6875 12.3958 63.5 11.4375 63.5C10.4792 63.5 9.70833 63.6458 9.125 63.9375C8.58333 64.2292 8.125 64.4375 7.75 64.5625C7.41667 64.6875 7.125 64.6875 6.875 64.5625C6.625 64.3958 6.375 64.1667 6.125 63.875C5.5 63.125 5.1875 62.4167 5.1875 61.75C5.1875 61.0417 5.4375 60.2917 5.9375 59.5C6.47917 58.6667 7.33333 57.7292 8.5 56.6875C9.66667 55.6042 11 54.625 12.5 53.75C15.875 51.7917 19.25 50.8125 22.625 50.8125C26.4583 50.8125 28.7292 53.3125 29.4375 58.3125C29.6458 59.7708 29.7708 61.2917 29.8125 62.875C35.8958 57.5 42.1667 53.8125 48.625 51.8125C50.7917 51.1458 52.75 50.8125 54.5 50.8125C56.2917 50.8125 57.75 51.0625 58.875 51.5625C60.0417 52.0625 60.9583 52.75 61.625 53.625C62.875 55.3333 63.5 57.5208 63.5 60.1875C63.5 62.8542 63.375 64.9792 63.125 66.5625C62.875 68.1458 62.5625 69.5417 62.1875 70.75C61.4375 73.2083 60.7292 74.7708 60.0625 75.4375C58.8958 76.6458 57.3333 77.25 55.375 77.25C53.375 77.25 52.375 76.6667 52.375 75.5C52.375 71.0417 52.1875 68.1875 51.8125 66.9375C51.1042 64.6458 49.7708 63.5 47.8125 63.5C45.8542 63.5 44.0833 63.7292 42.5 64.1875C40.9167 64.6042 39.375 65.1875 37.875 65.9375C34.8333 67.4375 32.1667 69.375 29.875 71.75V113.312C30 116.604 31.4375 118.604 34.1875 119.312C34.9792 119.521 35.875 119.708 36.875 119.875C37.875 120.042 38.7292 120.25 39.4375 120.5C40.1875 120.708 40.7708 120.958 41.1875 121.25C41.8958 121.792 42.25 122.667 42.25 123.875C42.25 125.375 41.9375 126.521 41.3125 127.312ZM72.5 93.375C72.5 88.3333 73.0208 83.8542 74.0625 79.9375C75.1042 76.0208 76.5 72.5208 78.25 69.4375C80.0417 66.3125 82.125 63.5833 84.5 61.25C86.9167 58.9167 89.5 56.9792 92.25 55.4375C97.6667 52.3542 103 50.8125 108.25 50.8125C113.5 50.8125 117.708 51.75 120.875 53.625C124.042 55.4583 126.625 57.9167 128.625 61C132.333 66.875 134.188 74.6875 134.188 84.4375C134.188 88.0625 132.667 89.9167 129.625 90L86 90.9375C86.25 99.9792 88.5833 106.667 93 111C96.75 114.667 101.604 116.5 107.562 116.5C116.438 116.5 123.646 114.646 129.188 110.938C129.562 110.938 130.021 111.25 130.562 111.875C131.604 113.125 132.125 114.208 132.125 115.125C132.125 117.125 129.625 119.688 124.625 122.812C118.875 126.396 112.167 128.188 104.5 128.188C94.5 128.188 86.6458 125 80.9375 118.625C75.3125 112.375 72.5 103.958 72.5 93.375ZM86.375 82.875C98.375 82.2917 109.354 81.5208 119.312 80.5625C119.771 67.3125 115.188 60.6875 105.562 60.6875C100.188 60.6875 95.7917 62.7708 92.375 66.9375C89.25 70.7708 87.25 76.0833 86.375 82.875ZM171.188 123.938C157.271 87.6042 150.104 68.8542 149.688 67.6875C149.271 66.4792 148.833 65.375 148.375 64.375C147.333 62.0417 146.396 60.875 145.562 60.875C145.021 60.875 144.417 60.9375 143.75 61.0625C143.083 61.1875 142.542 60.9583 142.125 60.375C141.708 59.7917 141.5 59.0625 141.5 58.1875C141.5 57.3125 141.896 56.4167 142.688 55.5C143.521 54.5833 144.542 53.7917 145.75 53.125C148.375 51.5833 150.458 50.8125 152 50.8125C153.542 50.8125 154.771 50.8542 155.688 50.9375C156.604 51.0208 157.458 51.3333 158.25 51.875C159.917 52.9583 161.312 55.2917 162.438 58.875L180.75 113.5C183.667 107.625 185.833 103.125 187.25 100L191.125 90.875C195.792 79.375 198.125 71.2917 198.125 66.625V65.8125C198.125 63.7292 197.646 62.0833 196.688 60.875C195.771 59.6667 194.125 58.9375 191.75 58.6875C191.333 58.0208 191.125 57.3333 191.125 56.625C191.125 55.875 191.521 55.1458 192.312 54.4375C193.146 53.6875 194.188 53.0417 195.438 52.5C198.021 51.375 200.833 50.8125 203.875 50.8125C206.958 50.8125 209.333 51.2917 211 52.25C212.708 53.1667 213.562 55 213.562 57.75C213.562 63.5833 209.604 75.1875 201.688 92.5625L196 104.5C192.083 112.417 189.125 117.792 187.125 120.625C183.542 125.667 180.396 128.188 177.688 128.188C175.729 128.188 173.979 127.417 172.438 125.875C171.896 125.333 171.479 124.688 171.188 123.938Z" fill="url(#paint1_linear_1_6)"/>
<defs>
<linearGradient id="paint0_linear_1_6" x1="269.5" y1="0" x2="269.5" y2="160" gradientUnits="userSpaceOnUse">
<stop stop-color="#5EA2EF"/>
<stop offset="1" stop-color="#0072F5"/>
</linearGradient>
<linearGradient id="paint1_linear_1_6" x1="109.5" y1="0" x2="109.5" y2="160" gradientUnits="userSpaceOnUse">
<stop stop-color="#FF1CF7"/>
<stop offset="1" stop-color="#B249F8"/>
</linearGradient>
</defs>
</svg>
