<svg width="125" height="127" viewBox="0 0 125 127" fill="none" xmlns="http://www.w3.org/2000/svg">
<rect y="2" width="125" height="125" rx="22" fill="#480D86"/>
<path d="M78.0703 65.6992L78.0215 78.541C78.0215 83.9121 78.2982 87.151 78.8516 88.2578C79.4049 89.332 80.056 89.9831 80.8047 90.2109C81.5534 90.4062 82.5137 90.5039 83.6855 90.5039C84.8574 90.5039 85.9154 90.4225 86.8594 90.2598C87.8359 90.0645 88.7474 89.8203 89.5938 89.5273C90.4401 89.2344 91.2539 88.9089 92.0352 88.5508L94.4277 87.5254C94.9811 87.3301 95.5996 87.8997 96.2832 89.2344C96.4785 89.5924 96.5762 90.0156 96.5762 90.5039C96.5762 90.9596 96.3809 91.5618 95.9902 92.3105C95.5996 93.0592 94.8346 93.9219 93.6953 94.8984C92.5885 95.8424 91.2865 96.6888 89.7891 97.4375C86.5339 99.0977 83.6042 99.9277 81 99.9277C78.4284 99.9277 76.3288 99.7812 74.7012 99.4883C73.0736 99.1953 71.6901 98.6094 70.5508 97.7305C68.207 95.9076 67.0352 92.571 67.0352 87.7207V49.293H62.2012C61.1921 49.293 60.4596 48.9674 60.0039 48.3164C59.2227 47.3073 58.832 46.4609 58.832 45.7773C58.832 44.638 59.1087 44.0033 59.6621 43.873C64.8379 42.9941 68.5 39.153 70.6484 32.3496C71.2669 30.2988 71.7552 27.8737 72.1133 25.0742C73.6758 24.8138 74.8477 24.6836 75.6289 24.6836C76.4427 24.6836 77.1426 25.0905 77.7285 25.9043C78.3145 26.7181 78.5911 27.6621 78.5586 28.7363C78.5586 29.8105 78.5423 30.8197 78.5098 31.7637C78.4772 32.7077 78.4447 33.7331 78.4121 34.8398L78.2168 41.6758H95.1113C95.5345 42.4245 95.7461 43.222 95.7461 44.0684V45.582C95.7461 46.9492 95.0137 48.0723 93.5488 48.9512C92.084 49.7975 90.4564 50.2207 88.666 50.2207C86.9082 50.2207 85.6387 50.2044 84.8574 50.1719C84.1087 50.1068 83.3763 50.0417 82.6602 49.9766L80.5117 49.6836C79.763 49.6185 78.9655 49.5534 78.1191 49.4883V50.0254L78.0703 65.6992Z" fill="url(#paint0_linear_8_3)"/>
<path d="M57.2754 99.2441C56.5918 99.0814 55.5501 99 54.1504 99H37.5977C34.4727 99 32.4707 98.4466 31.5918 97.3398C31.2337 96.9167 31.0547 96.4284 31.0547 95.875C31.0547 94.5078 31.3151 93.4987 31.8359 92.8477C32.6172 93.1081 33.3333 93.2383 33.9844 93.2383C34.668 93.2383 35.2376 93.1569 35.6934 92.9941C36.1491 92.7988 36.5072 92.4896 36.7676 92.0664C37.2233 91.2852 37.4512 89.7552 37.4512 87.4766V55.543C37.4512 52.4831 36.8815 50.5788 35.7422 49.8301C35.2865 49.5371 34.6842 49.3906 33.9355 49.3906C33.1868 49.3906 32.5846 49.5046 32.1289 49.7324C31.7057 49.9603 31.3477 50.123 31.0547 50.2207C30.7943 50.3184 30.5664 50.3184 30.3711 50.2207C30.1758 50.0905 29.9805 49.9115 29.7852 49.6836C29.2969 49.0977 29.0527 48.5443 29.0527 48.0234C29.0527 47.4701 29.248 46.8841 29.6387 46.2656C30.0618 45.6146 30.7292 44.8822 31.6406 44.0684C32.5521 43.222 33.5938 42.457 34.7656 41.7734C37.4023 40.2435 40.0391 39.4785 42.6758 39.4785C45.6706 39.4785 47.4447 41.4316 47.998 45.3379C48.1608 46.4772 48.2585 47.6654 48.291 48.9023C53.0436 44.7031 57.9427 41.8223 62.9883 40.2598C64.681 39.7389 66.2109 39.4785 67.5781 39.4785C68.9779 39.4785 70.1172 39.6738 70.9961 40.0645C71.9076 40.4551 72.6237 40.9922 73.1445 41.6758C74.1211 43.0104 74.6094 44.7194 74.6094 46.8027C74.6094 48.8861 74.5117 50.5462 74.3164 51.7832C74.1211 53.0202 73.877 54.1107 73.584 55.0547C72.998 56.9753 72.4447 58.196 71.9238 58.7168C71.0124 59.6608 69.7917 60.1328 68.2617 60.1328C66.6992 60.1328 65.918 59.6771 65.918 58.7656C65.918 55.2826 65.7715 53.0527 65.4785 52.0762C64.9251 50.2858 63.8835 49.3906 62.3535 49.3906C60.8236 49.3906 59.4401 49.5697 58.2031 49.9277C56.9661 50.2533 55.7617 50.709 54.5898 51.2949C52.2135 52.4668 50.1302 53.9805 48.3398 55.8359V88.3066C48.4375 90.8783 49.5605 92.4408 51.709 92.9941C52.3275 93.1569 53.0273 93.3034 53.8086 93.4336C54.5898 93.5638 55.2572 93.7266 55.8105 93.9219C56.3965 94.0846 56.8522 94.2799 57.1777 94.5078C57.7311 94.931 58.0078 95.6146 58.0078 96.5586C58.0078 97.7305 57.7637 98.6257 57.2754 99.2441Z" fill="url(#paint1_linear_8_3)"/>
<defs>
<linearGradient id="paint0_linear_8_3" x1="78" y1="0" x2="78" y2="125" gradientUnits="userSpaceOnUse">
<stop stop-color="#5EA2EF"/>
<stop offset="1" stop-color="#0072F5"/>
</linearGradient>
<linearGradient id="paint1_linear_8_3" x1="51" y1="0" x2="51" y2="125" gradientUnits="userSpaceOnUse">
<stop stop-color="#FF1CF7"/>
<stop offset="1" stop-color="#B249F8"/>
</linearGradient>
</defs>
</svg>
