<svg width="937" height="676" viewBox="0 0 937 676" fill="none" xmlns="http://www.w3.org/2000/svg">
<g clip-path="url(#clip0_1_102)">
<path d="M227.029 617.507H192.044C190.546 617.507 189.328 615.969 189.328 614.079V576.904C189.328 575.014 190.546 573.476 192.044 573.476H227.029C228.526 573.476 229.745 575.014 229.745 576.904V614.079C229.745 615.969 228.526 617.507 227.029 617.507Z" fill="#F2F2F2"/>
<path d="M67.5865 599.709C67.1217 599.731 66.6616 599.609 66.2684 599.36C65.8753 599.111 65.5682 598.747 65.3887 598.318C65.2092 597.889 65.166 597.415 65.2649 596.96C65.3639 596.505 65.6002 596.092 65.9418 595.776L66.0974 595.158C66.0769 595.108 66.0563 595.059 66.0356 595.01C65.5673 593.904 64.7827 592.961 63.7802 592.299C62.7777 591.637 61.6021 591.287 60.401 591.291C59.1999 591.296 58.0269 591.655 57.0294 592.324C56.0318 592.993 55.2542 593.942 54.7942 595.051C52.9556 599.48 50.6148 603.915 50.0384 608.597C49.7845 610.667 49.8916 612.765 50.3549 614.798C46.0365 605.378 43.7942 595.14 43.7797 584.777C43.7788 582.177 43.9233 579.578 44.2125 576.994C44.4515 574.875 44.783 572.772 45.2072 570.684C47.5217 559.352 52.4911 548.732 59.7073 539.694C63.1999 537.788 66.0245 534.858 67.8003 531.298C68.4436 530.018 68.8983 528.651 69.1502 527.241C68.7562 527.293 67.6646 521.293 67.9618 520.925C67.4127 520.091 66.43 519.677 65.8304 518.864C62.848 514.821 58.7392 515.527 56.5942 521.021C52.0119 523.334 51.9676 527.17 54.7792 530.858C56.5679 533.205 56.8137 536.381 58.3833 538.893C58.2217 539.1 58.0538 539.3 57.8923 539.507C54.9406 543.302 52.368 547.378 50.2113 551.675C50.7358 546.861 50.1099 541.991 48.385 537.466C46.6368 533.248 43.36 529.697 40.4745 526.051C39.7113 525.071 38.6749 524.34 37.4963 523.95C36.3176 523.559 35.0497 523.527 33.8527 523.857C32.6557 524.187 31.5834 524.864 30.7714 525.804C29.9594 526.743 29.444 527.902 29.2905 529.134C29.2846 529.188 29.2788 529.242 29.2732 529.295C29.7018 529.537 30.1214 529.794 30.5318 530.065C31.0475 530.41 31.4471 530.902 31.6782 531.478C31.9094 532.053 31.9612 532.685 31.8271 533.29C31.6929 533.896 31.379 534.447 30.9264 534.871C30.4738 535.295 29.9037 535.572 29.2908 535.667L29.228 535.677C29.3807 537.221 29.6506 538.752 30.0353 540.256C26.3335 554.572 34.3254 559.786 45.7368 560.02C45.9887 560.149 46.2342 560.278 46.4861 560.401C44.3193 566.542 42.9601 572.938 42.4428 579.429C42.15 583.259 42.1672 587.105 42.4945 590.932L42.4751 590.797C41.6483 586.541 39.3784 582.702 36.0485 579.926C31.1029 575.864 24.1157 574.368 18.7803 571.102C18.2132 570.738 17.5539 570.544 16.8801 570.542C16.2062 570.54 15.546 570.731 14.9772 571.093C14.4084 571.454 13.9547 571.97 13.6698 572.581C13.3849 573.192 13.2805 573.871 13.3691 574.539L13.3909 574.682C14.1862 575.006 14.9606 575.379 15.7096 575.799C16.1382 576.041 16.5577 576.298 16.9682 576.569C17.4839 576.914 17.8835 577.406 18.1146 577.981C18.3457 578.557 18.3976 579.189 18.2635 579.794C18.1293 580.4 17.8154 580.951 17.3628 581.375C16.9102 581.799 16.3401 582.076 15.7272 582.171L15.6643 582.18C15.6191 582.187 15.5803 582.193 15.5352 582.2C16.8942 585.445 18.8015 588.431 21.1738 591.029C23.4884 603.526 33.4298 604.712 44.064 601.073H44.0705C45.2373 606.143 46.9278 611.078 49.1149 615.799H67.1351C67.1997 615.599 67.2578 615.392 67.3159 615.192C65.6479 615.297 63.9734 615.197 62.3296 614.895C63.6666 613.254 65.0037 611.601 66.3407 609.96C66.3705 609.929 66.3985 609.897 66.4246 609.863C67.1028 609.024 67.7875 608.19 68.4657 607.351L68.466 607.35C68.5022 604.776 68.2061 602.208 67.5865 599.709Z" fill="#F2F2F2"/>
<path d="M501.384 143.247C501.384 141.769 499.662 140.57 497.536 140.57C495.411 140.57 493.689 141.769 493.689 143.247C493.689 144.726 495.411 145.924 497.536 145.924C499.662 145.924 501.384 144.726 501.384 143.247Z" fill="#F2F2F2"/>
<path d="M473.111 151.947C475.236 151.947 476.959 150.748 476.959 149.27C476.959 147.792 475.236 146.593 473.111 146.593C470.986 146.593 469.263 147.792 469.263 149.27C469.263 150.748 470.986 151.947 473.111 151.947Z" fill="#F2F2F2"/>
<path d="M507.24 164.996C509.365 164.996 511.087 163.797 511.087 162.319C511.087 160.841 509.365 159.642 507.24 159.642C505.115 159.642 503.392 160.841 503.392 162.319C503.392 163.797 505.115 164.996 507.24 164.996Z" fill="#F2F2F2"/>
<path d="M517.365 171.151C517.177 171.17 516.987 171.153 516.805 171.101C516.395 170.909 516.043 170.61 515.788 170.235C515.533 169.86 515.383 169.424 515.355 168.971C515.244 168.499 515.279 168.004 515.456 167.552C515.633 167.1 515.943 166.713 516.345 166.441C516.455 166.385 516.573 166.348 516.695 166.331C517.625 166.201 518.525 167.181 518.705 168.511C518.885 169.841 518.285 171.021 517.365 171.151Z" fill="#F2F2F2"/>
<path d="M299.583 211.28C299.4 209.95 298.501 208.974 297.575 209.102C296.65 209.229 296.048 210.411 296.231 211.742C296.415 213.072 297.314 214.048 298.239 213.92C299.165 213.793 299.766 212.611 299.583 211.28Z" fill="#F2F2F2"/>
<path d="M490.265 158.299C489.339 158.426 488.737 159.608 488.921 160.939C489.104 162.269 490.003 163.245 490.928 163.117C491.854 162.989 492.456 161.807 492.272 160.477C492.089 159.146 491.19 158.171 490.265 158.299Z" fill="#F2F2F2"/>
<path d="M503.376 152.757C503.193 151.426 502.294 150.451 501.368 150.579C500.443 150.706 499.841 151.888 500.024 153.219C500.208 154.549 501.106 155.524 502.032 155.397C502.958 155.269 503.559 154.087 503.376 152.757Z" fill="#F2F2F2"/>
<path d="M483.757 146.771C484.683 146.643 485.285 145.461 485.101 144.131C484.918 142.8 484.019 141.825 483.093 141.953C482.168 142.08 481.566 143.262 481.75 144.593C481.933 145.923 482.832 146.898 483.757 146.771Z" fill="#F2F2F2"/>
<path d="M392.055 285.471H329.425C326.361 285.471 323.422 286.689 321.255 288.856C319.088 291.023 317.87 293.962 317.87 297.026C317.87 300.091 319.088 303.03 321.255 305.197C323.422 307.364 326.361 308.581 329.425 308.581H392.055C395.12 308.581 398.059 307.364 400.226 305.197C402.393 303.03 403.61 300.091 403.61 297.026C403.61 293.962 402.393 291.023 400.226 288.856C398.059 286.689 395.12 285.471 392.055 285.471Z" fill="#F2F2F2"/>
<path d="M435.695 284.471C433.796 284.453 431.912 284.816 430.156 285.541C428.4 286.267 426.808 287.338 425.475 288.691C423.262 290.905 422.012 293.902 421.995 297.031C421.995 303.951 428.135 309.581 435.695 309.581H481.365C481.635 309.251 481.905 308.911 482.175 308.581C482.445 308.251 482.705 307.921 482.965 307.581H435.695C429.345 307.581 424.175 302.851 424.175 297.031C424.183 295.703 424.455 294.39 424.976 293.167C425.496 291.945 426.254 290.838 427.205 289.911C428.325 288.808 429.651 287.937 431.108 287.346C432.565 286.756 434.123 286.459 435.695 286.471H497.845C498.045 286.161 498.235 285.851 498.425 285.541C498.645 285.181 498.865 284.831 499.075 284.471H435.695Z" fill="#F2F2F2"/>
<path d="M284.95 124.476H274.34C274.053 124.475 273.768 124.532 273.502 124.642C273.236 124.752 272.995 124.913 272.791 125.117C272.588 125.32 272.427 125.562 272.317 125.827C272.207 126.093 272.15 126.378 272.15 126.665V137.286C272.15 137.573 272.207 137.858 272.317 138.124C272.427 138.389 272.588 138.631 272.791 138.834C272.995 139.038 273.236 139.199 273.502 139.309C273.768 139.419 274.053 139.476 274.34 139.476H284.95C285.532 139.476 286.09 139.246 286.503 138.835C286.915 138.425 287.148 137.867 287.15 137.286V126.665C287.148 126.084 286.915 125.526 286.503 125.116C286.09 124.705 285.532 124.475 284.95 124.476Z" fill="#F2F2F2"/>
<path d="M284.95 411.475H274.34C274.053 411.475 273.768 411.532 273.502 411.642C273.236 411.752 272.995 411.913 272.791 412.117C272.588 412.32 272.427 412.562 272.317 412.827C272.207 413.093 272.15 413.378 272.15 413.665V424.285C272.15 424.573 272.207 424.858 272.317 425.124C272.427 425.389 272.588 425.631 272.791 425.834C272.995 426.038 273.236 426.199 273.502 426.309C273.768 426.419 274.053 426.476 274.34 426.475H284.95C285.532 426.476 286.09 426.246 286.503 425.835C286.915 425.425 287.148 424.867 287.15 424.285V413.665C287.148 413.084 286.915 412.526 286.503 412.116C286.09 411.705 285.532 411.475 284.95 411.475Z" fill="#F2F2F2"/>
<path d="M431.305 130.971H398.305C396.685 130.971 395.131 131.615 393.985 132.761C392.839 133.907 392.195 135.461 392.195 137.081C392.195 138.702 392.839 140.256 393.985 141.402C395.131 142.548 396.685 143.191 398.305 143.191H431.305C432.926 143.191 434.48 142.548 435.626 141.402C436.771 140.256 437.415 138.702 437.415 137.081C437.415 135.461 436.771 133.907 435.626 132.761C434.48 131.615 432.926 130.971 431.305 130.971Z" fill="#F2F2F2"/>
<path d="M475.115 161.521H354.485C348.611 161.525 342.978 163.86 338.824 168.013C334.669 172.166 332.332 177.797 332.325 183.671V220.001C332.331 225.878 334.667 231.512 338.822 235.668C342.976 239.824 348.609 242.163 354.485 242.171H475.115C480.992 242.164 486.626 239.826 490.781 235.67C494.935 231.513 497.271 225.878 497.275 220.001V183.671C497.27 177.797 494.933 172.164 490.778 168.011C486.623 163.858 480.99 161.524 475.115 161.521ZM494.835 220.001C494.833 225.231 492.755 230.245 489.057 233.943C485.359 237.641 480.345 239.719 475.115 239.721H388.515C386.117 239.724 383.722 239.563 381.345 239.241H381.335C381.155 239.221 380.965 239.191 380.785 239.161C368.002 237.307 356.315 230.91 347.863 221.142C339.412 211.374 334.762 198.888 334.765 185.971V183.671C334.774 178.445 336.855 173.436 340.552 169.741C344.248 166.046 349.259 163.968 354.485 163.961H475.115C480.342 163.966 485.353 166.044 489.05 169.739C492.747 173.434 494.828 178.445 494.835 183.671V220.001Z" fill="#F2F2F2"/>
<path d="M320.885 357.091H320.865C251.755 344.281 198.495 261.861 198.495 162.141V153.721C198.495 113.981 221.745 81.5913 250.305 81.5913L487.369 73.5513C485.839 70.5313 488.075 75.6013 486.425 72.6613H250.305C218.195 72.6613 192.075 109.001 192.075 153.721V286.671C192.075 331.401 218.195 367.811 250.305 367.811H444.715C447.665 364.891 441.568 370.611 444.368 367.551L339.725 358.841C333.404 358.848 327.097 358.263 320.885 357.091Z" fill="#F2F2F2"/>
<path d="M114.15 219.112C112.919 219.691 111.658 220.205 110.373 220.651C108.802 218.14 106.88 215.868 104.665 213.903C105.279 216.598 105.536 219.363 105.429 222.125C98.443 223.77 91.2345 224.254 84.0917 223.558C84.8344 220.873 85.5772 218.186 86.3199 215.494C84.3057 217.601 81.7357 219.094 78.9076 219.8C76.0795 220.506 73.1093 220.397 70.3411 219.484C75.1651 217.389 79.2624 213.915 82.1183 209.499C83.5178 207.285 84.4283 204.797 84.7888 202.203C85.1493 199.608 84.9514 196.966 84.2085 194.454C82.9989 190.794 80.4843 187.643 79.5612 183.918C78.3729 179.123 82.4472 175.016 83.2535 170.168C84.2403 164.226 110.606 173.075 109.662 175.993C111.614 177.308 111.678 180.194 110.872 182.401C110.065 184.619 108.591 186.56 108.071 188.852C107.561 191.144 114.405 212.937 111.71 211.855C113.177 214.003 114.022 216.514 114.15 219.112Z" fill="#2F2E41"/>
<path d="M150.343 284.085L98.7159 259.828C96.5317 258.794 94.8416 256.943 94.0105 254.673C93.1793 252.404 93.2737 249.899 94.2732 247.699C94.7903 246.56 95.5338 245.539 96.4583 244.698C97.3829 243.856 98.4692 243.212 99.6509 242.804C100.833 242.396 102.085 242.233 103.332 242.324C104.579 242.416 105.794 242.761 106.903 243.338L159.759 270.179L192.564 285.135C193.778 284.019 195.307 283.303 196.943 283.086C198.578 282.868 200.241 283.16 201.705 283.92C203.169 284.681 204.363 285.874 205.126 287.337C205.888 288.8 206.182 290.462 205.967 292.098C205.752 293.734 205.038 295.264 203.923 296.48C202.809 297.696 201.346 298.539 199.735 298.895C198.125 299.252 196.443 299.103 194.919 298.47C193.396 297.838 192.104 296.751 191.219 295.359L150.343 284.085Z" fill="#3F3D56"/>
<path d="M107.007 269.515C106.452 269.728 105.843 269.754 105.272 269.587C104.701 269.42 104.201 269.071 103.848 268.592C103.402 268.01 102.784 267.582 102.083 267.367C101.947 267.327 101.808 267.297 101.668 267.275C100.82 267.164 100.011 266.851 99.3104 266.361C98.6096 265.871 98.0374 265.219 97.6425 264.461C96.3786 261.946 93.7237 259.842 91.1979 258.331C88.434 256.678 85.539 255.15 83.2511 252.884C79.9508 249.614 78.0146 244.393 81.8959 240.108C83.575 238.311 85.8221 237.148 88.2587 236.814C93.3437 236.049 98.1849 238.125 102.797 240.156L101.364 238.46C106.363 240.766 111.776 242.038 117.279 242.201C116.574 243.226 117.733 244.673 118.972 244.782C120.22 244.724 121.43 244.341 122.483 243.671C123.902 243.003 125.755 242.597 126.762 244.242C126.992 244.642 127.137 245.085 127.187 245.544C127.238 246.003 127.193 246.467 127.055 246.908C124.632 255.288 120.502 263.076 114.925 269.783C113.685 271.272 112.199 272.8 110.274 273.017C108.349 273.235 106.209 271.28 107.007 269.515Z" fill="#3F3D56"/>
<path d="M150.343 284.085L98.7159 259.828C96.5317 258.794 94.8416 256.943 94.0105 254.673C93.1793 252.404 93.2737 249.899 94.2732 247.699C94.7903 246.56 95.5338 245.539 96.4583 244.698C97.3829 243.856 98.4692 243.212 99.6509 242.804C100.833 242.396 102.085 242.233 103.332 242.324C104.579 242.416 105.794 242.761 106.903 243.338L159.759 270.179L192.564 285.135C193.778 284.019 195.307 283.303 196.943 283.086C198.578 282.868 200.241 283.16 201.705 283.92C203.169 284.681 204.363 285.874 205.126 287.337C205.888 288.8 206.182 290.462 205.967 292.098C205.752 293.734 205.038 295.264 203.923 296.48C202.809 297.696 201.346 298.539 199.735 298.895C198.125 299.252 196.443 299.103 194.919 298.47C193.396 297.838 192.104 296.751 191.219 295.359L150.343 284.085Z" fill="#A0616A"/>
<path d="M107.007 269.515C106.452 269.728 105.843 269.754 105.272 269.587C104.701 269.42 104.201 269.071 103.848 268.592C103.402 268.01 102.784 267.582 102.083 267.367C101.947 267.327 101.808 267.297 101.668 267.275C100.82 267.164 100.011 266.851 99.3104 266.361C98.6096 265.871 98.0374 265.219 97.6425 264.461C96.3786 261.946 93.7237 259.842 91.1979 258.331C88.434 256.678 85.539 255.15 83.2511 252.884C79.9508 249.614 78.0146 244.393 81.8959 240.108C83.575 238.311 85.8221 237.148 88.2587 236.814C93.3437 236.049 98.1849 238.125 102.797 240.156L101.364 238.46C106.363 240.766 111.776 242.038 117.279 242.201C116.574 243.226 117.733 244.673 118.972 244.782C120.22 244.724 121.43 244.341 122.483 243.671C123.902 243.003 125.755 242.597 126.762 244.242C126.992 244.642 127.137 245.085 127.187 245.544C127.238 246.003 127.193 246.467 127.055 246.908C124.632 255.288 120.502 263.076 114.925 269.783C113.685 271.272 112.199 272.8 110.274 273.017C108.349 273.235 106.209 271.28 107.007 269.515Z" fill="#6C63FF"/>
<path d="M104.5 595.099H115.977L121.437 550.828L104.498 550.829L104.5 595.099Z" fill="#A0616A"/>
<path d="M119.797 596.132V588.351L116.779 588.536L104.497 589.263L101.654 589.438L99.4807 615.497L99.3643 616.895H107.514L107.776 615.507L108.959 609.201L112.016 615.507L112.685 616.895H134.291C135.577 616.886 136.808 616.371 137.716 615.461C138.624 614.551 139.137 613.32 139.142 612.034C140.054 607.775 122.086 598.568 119.797 596.132Z" fill="#2F2E41"/>
<path d="M76.899 374.853L94.93 479.213L102.174 562.82L126.15 567.476L130.507 458.192L116.566 383.357L76.899 374.853Z" fill="#2F2E41"/>
<path d="M194.678 552.577L205.974 550.546L203.517 506.007L186.845 509.005L194.678 552.577Z" fill="#A0616A"/>
<path d="M209.916 550.888L208.54 543.229L205.602 543.945L193.642 546.833L190.875 547.508L193.346 573.541L193.478 574.937L201.499 573.495L201.512 572.083L201.561 565.667L205.685 571.333L206.589 572.58L227.855 568.758C229.119 568.523 230.239 567.798 230.972 566.742C231.705 565.686 231.991 564.383 231.769 563.116C231.913 558.763 212.6 552.879 209.916 550.888Z" fill="#2F2E41"/>
<path d="M63.0557 334.156L62.3189 353.954C62.3189 353.954 52.1281 398.747 84.1392 404.611C116.15 410.475 159.505 421.071 159.505 421.071L188.15 521.475L205.15 518.475C205.15 518.475 203.15 433.475 200.15 421.475C197.15 409.475 202.638 395.991 175.894 384.733C149.15 373.476 122.456 355.524 122.456 355.524L116.566 321.987L63.0557 334.156Z" fill="#2F2E41"/>
<path d="M64.9882 237.506L68.8335 225.97C69.6891 223.404 71.2921 221.151 73.4369 219.502C75.5817 217.853 78.1704 216.882 80.8708 216.714L84.2875 216.502C87.3271 216.313 90.3418 217.152 92.8472 218.883C95.3525 220.615 97.2029 223.138 98.1009 226.048C98.8883 228.623 100.426 230.904 102.518 232.599C104.61 234.294 107.16 235.327 109.841 235.564C119.828 236.415 121.151 257.044 121.151 267.475C121.151 283.206 110.779 298.105 114.15 301.475C117.521 304.846 123.645 320.388 119.15 324.475C117.979 325.54 120.775 335.807 121.15 339.475C121.829 346.12 81.8421 333.698 68.3589 337.506C54.8758 341.314 61.6174 312.787 59.3702 310.54C57.8526 309.022 65.2691 304.86 63.7515 302.318C62.955 300.984 62.3943 299.522 62.0941 297.997L56.2241 278.411C56.1597 278.085 56.1081 277.765 56.0679 277.435C55.5567 273.243 48.7142 242.634 60.1502 238.475C72.5097 233.981 64.9882 237.506 64.9882 237.506Z" fill="#6C63FF"/>
<path d="M251.057 324.466C247.973 318.14 241.739 314.061 235.793 310.295C214.771 296.982 193.748 283.668 172.725 270.355C165.505 265.783 157.515 261.023 149.032 262.053C138.546 263.325 131.299 272.82 125.308 281.519C119.875 289.408 114.255 297.814 113.631 307.372C113.006 316.931 119.561 327.651 129.137 327.867C120.312 335.465 111.487 343.062 102.662 350.66L140.363 351.255L141.404 347.247C159.49 356.778 177.576 366.308 195.663 375.838C201.153 378.731 206.941 381.699 213.146 381.61C224.321 381.45 232.715 371.774 239.543 362.925C248.181 351.728 257.253 337.179 251.057 324.466Z" fill="white"/>
<path d="M254.526 331.656C253.993 326.029 251.42 320.792 247.293 316.931C243.026 312.784 237.761 309.767 232.766 306.604C220.713 298.971 208.66 291.338 196.607 283.704C190.441 279.799 184.274 275.894 178.107 271.989C172.633 268.522 167.212 264.787 161.146 262.413C155.675 260.273 149.63 259.641 144.042 261.735C139.049 263.606 134.903 267.114 131.399 271.06C127.734 275.364 124.374 279.919 121.345 284.692C117.929 289.844 114.73 295.312 113.129 301.331C111.628 306.468 111.819 311.952 113.674 316.972C115.386 321.339 118.361 325.415 122.582 327.639C123.571 328.16 124.616 328.568 125.697 328.855L101.601 349.599C101.399 349.812 101.262 350.078 101.208 350.367C101.154 350.656 101.185 350.954 101.298 351.225C101.41 351.496 101.599 351.729 101.841 351.895C102.083 352.061 102.368 352.153 102.662 352.16L140.363 352.755C140.752 352.741 141.12 352.577 141.39 352.297C141.661 352.017 141.812 351.644 141.812 351.255C141.812 350.866 141.661 350.492 141.39 350.212C141.12 349.932 140.752 349.768 140.363 349.755C129.117 349.577 117.871 349.4 106.624 349.222C114.482 342.457 122.34 335.693 130.198 328.928C130.4 328.715 130.537 328.449 130.59 328.16C130.644 327.872 130.613 327.574 130.501 327.302C130.388 327.031 130.2 326.798 129.958 326.632C129.716 326.466 129.431 326.374 129.137 326.367C119.813 326.039 114.544 315.478 115.147 307.159C115.566 301.362 118.025 295.931 120.931 290.982C123.797 286.15 126.947 281.492 130.364 277.033C133.403 273.037 136.868 269.132 141.173 266.47C143.392 265.069 145.871 264.128 148.462 263.705C151.052 263.281 153.701 263.383 156.252 264.004C162.131 265.4 167.343 268.722 172.389 271.916C177.995 275.466 183.601 279.016 189.207 282.567C200.699 289.845 212.192 297.123 223.684 304.401C228.907 307.709 234.231 310.898 239.333 314.392C243.698 317.381 247.979 320.986 250.105 325.966C254.629 336.561 248.192 348.141 242.246 356.726C239.162 361.245 235.761 365.538 232.067 369.573C228.655 373.245 224.742 376.752 220.041 378.664C214.764 380.811 209.346 380.263 204.12 378.237C201.257 377.051 198.465 375.701 195.758 374.194C192.744 372.606 189.729 371.017 186.715 369.429C174.804 363.153 158.922 342.756 145.755 342.881C142.431 342.913 138.936 347.641 140.647 348.542C153.44 355.283 166.232 362.024 179.025 368.765C185.237 372.039 191.41 375.402 197.676 378.571C203.158 381.344 209.106 383.721 215.368 382.951C226.401 381.594 234.23 372.234 240.603 363.985C244.479 359.176 247.846 353.978 250.649 348.474C253.157 343.285 255.016 337.488 254.526 331.656Z" fill="#CCCCCC"/>
<path d="M193.479 310.342C193.44 310.35 193.401 310.361 193.362 310.37C192.668 307.417 190.843 304.854 188.28 303.233C185.716 301.612 182.618 301.061 179.653 301.7C176.677 302.342 174.074 304.129 172.407 306.676C170.74 309.222 170.142 312.323 170.744 315.307L170.74 315.308L170.773 315.46L175.62 337.948L198.26 333.068L198.246 333.003C198.284 332.995 198.321 332.99 198.359 332.982C199.846 332.661 201.255 332.051 202.505 331.186C203.756 330.321 204.824 329.219 205.649 327.941C206.474 326.663 207.038 325.236 207.311 323.739C207.584 322.243 207.56 320.708 207.239 319.222C206.919 317.735 206.309 316.326 205.444 315.076C204.579 313.825 203.476 312.757 202.198 311.932C200.921 311.107 199.493 310.543 197.997 310.27C196.501 309.997 194.966 310.021 193.479 310.342Z" fill="#6C63FF"/>
<path d="M433.442 268.18C433.44 268.22 433.44 268.26 433.438 268.3C430.407 268.175 427.448 269.243 425.197 271.277C422.946 273.31 421.583 276.146 421.402 279.174C421.22 282.212 422.242 285.2 424.246 287.491C426.251 289.781 429.077 291.19 432.113 291.413L432.112 291.417L432.268 291.426L455.231 292.803L456.617 269.685L456.551 269.681C456.553 269.642 456.558 269.604 456.561 269.566C456.652 268.048 456.443 266.527 455.946 265.09C455.449 263.652 454.674 262.327 453.665 261.189C452.656 260.051 451.433 259.124 450.065 258.459C448.698 257.794 447.212 257.405 445.694 257.313C444.176 257.222 442.655 257.431 441.218 257.928C439.781 258.425 438.456 259.2 437.318 260.209C436.18 261.218 435.252 262.441 434.587 263.809C433.922 265.176 433.533 266.662 433.442 268.18Z" fill="#E6E6E6"/>
<path d="M241.442 107.18C241.44 107.22 241.44 107.26 241.438 107.3C238.407 107.175 235.448 108.243 233.197 110.277C230.946 112.31 229.583 115.146 229.402 118.174C229.22 121.212 230.242 124.2 232.246 126.491C234.251 128.781 237.077 130.19 240.113 130.413L240.112 130.417L240.268 130.426L263.231 131.803L264.617 108.685L264.551 108.681C264.553 108.642 264.558 108.604 264.561 108.566C264.652 107.048 264.443 105.527 263.946 104.09C263.449 102.652 262.674 101.327 261.665 100.189C260.656 99.0515 259.433 98.1236 258.065 97.4586C256.698 96.7936 255.212 96.4045 253.694 96.3135C252.176 96.2225 250.655 96.4313 249.218 96.9281C247.781 97.425 246.456 98.2 245.318 99.209C244.18 100.218 243.252 101.441 242.587 102.809C241.922 104.176 241.533 105.662 241.442 107.18Z" fill="#E6E6E6"/>
<path d="M130.839 303.818L83.393 272.153C81.3869 270.806 79.9909 268.724 79.5065 266.356C79.022 263.988 79.4879 261.525 80.8035 259.498C81.4841 258.449 82.3712 257.55 83.4106 256.855C84.4501 256.161 85.6201 255.685 86.8494 255.457C88.0787 255.229 89.3415 255.254 90.5608 255.531C91.7801 255.807 92.9304 256.328 93.9416 257.064L142.218 291.467L172.434 311.135C173.801 310.212 175.419 309.732 177.069 309.76C178.718 309.788 180.319 310.324 181.654 311.293C182.989 312.263 183.992 313.621 184.529 315.181C185.065 316.741 185.108 318.428 184.652 320.014C184.196 321.599 183.263 323.006 181.98 324.043C180.697 325.08 179.125 325.696 177.479 325.809C175.833 325.922 174.193 325.525 172.78 324.673C171.367 323.82 170.251 322.554 169.584 321.045L130.839 303.818Z" fill="#A0616A"/>
<path d="M90.1515 282.965C89.571 283.094 88.9644 283.028 88.4249 282.778C87.8853 282.528 87.4427 282.109 87.1649 281.583C86.81 280.941 86.2634 280.426 85.6014 280.109C85.4727 280.049 85.3402 279.998 85.2048 279.956C84.3828 279.721 83.6296 279.29 83.0095 278.702C82.3893 278.113 81.9205 277.383 81.6427 276.574C80.7668 273.9 78.4544 271.424 76.1813 269.555C73.694 267.509 71.0583 265.567 69.133 262.986C66.3556 259.262 65.2175 253.811 69.6929 250.151C71.6205 248.623 74.0157 247.807 76.4747 247.84C81.617 247.84 86.0955 250.613 90.3546 253.307L89.1894 251.416C93.7899 254.44 98.9537 256.503 104.371 257.482C103.522 258.391 104.453 259.994 105.662 260.286C106.904 260.415 108.158 260.217 109.299 259.71C110.802 259.261 112.694 259.135 113.446 260.911C113.614 261.341 113.691 261.801 113.672 262.262C113.654 262.723 113.54 263.176 113.339 263.591C109.696 271.517 104.454 278.605 97.9412 284.408C96.4939 285.696 94.7971 286.986 92.861 286.915C90.9249 286.843 89.0996 284.592 90.1515 282.965Z" fill="#6C63FF"/>
<path d="M83.9449 214.258C95.8314 214.258 105.467 204.623 105.467 192.736C105.467 180.85 95.8314 171.214 83.9449 171.214C72.0585 171.214 62.4226 180.85 62.4226 192.736C62.4226 204.623 72.0585 214.258 83.9449 214.258Z" fill="#A0616A"/>
<path d="M109.842 183.356C109.341 184.269 108.652 185.064 107.819 185.69C106.987 186.316 106.031 186.757 105.015 186.985C103.592 187.329 102.124 187.447 100.665 187.335C100.252 185.394 99.2474 183.63 97.7894 182.284C97.8695 183.887 97.4865 185.478 96.686 186.868C93.4253 186.348 90.2258 185.499 87.1368 184.332C88.5479 186.21 87.6674 188.969 86.1819 190.783C84.6859 192.608 82.6593 193.966 81.418 195.961C80.1765 197.955 80.1023 201.043 82.1182 202.242C82.9246 202.719 83.922 202.815 84.7177 203.314C86.4047 204.406 86.4684 206.857 86.044 208.82L96.6541 219.208C92.4146 220.467 88.0779 221.372 83.6885 221.913C82.602 219.206 80.8937 216.793 78.7018 214.868C79.3795 217.381 79.3501 220.032 78.6169 222.529C66.8502 223.749 53.5238 223.749 47.37 220.873C48.9509 218.582 50.5425 216.29 52.1234 213.987C49.529 215.316 46.6116 215.882 43.7086 215.621C40.8057 215.36 38.036 214.282 35.7202 212.513C40.9675 212.119 45.9809 210.181 50.1287 206.942C52.1757 205.308 53.8506 203.256 55.0417 200.924C56.2327 198.591 56.9126 196.031 57.0359 193.414C57.0995 189.563 55.7521 185.765 56.1022 181.934C56.5584 177.022 59.8582 172.65 64.1022 170.157C68.458 167.78 73.4001 166.691 78.3516 167.016C83.273 167.341 88.1516 168.141 92.9193 169.404C94.1925 169.69 95.4657 169.987 96.739 170.284C98.8403 170.714 100.908 171.295 102.925 172.024C105.299 172.837 107.388 174.318 108.941 176.29C109.7 177.284 110.183 178.461 110.342 179.702C110.5 180.942 110.328 182.203 109.842 183.356Z" fill="#2F2E41"/>
<path d="M5.26985e-06 617.913C-0.000460806 618.069 0.029993 618.224 0.0896354 618.369C0.149278 618.513 0.236937 618.645 0.347539 618.755C0.458142 618.866 0.58951 618.953 0.734106 619.013C0.878702 619.073 1.03366 619.103 1.19007 619.103H254.48C254.796 619.103 255.098 618.977 255.322 618.754C255.545 618.531 255.67 618.228 255.67 617.913C255.67 617.597 255.545 617.294 255.322 617.071C255.098 616.848 254.796 616.723 254.48 616.723H1.19007C1.03366 616.722 0.878699 616.753 0.734106 616.812C0.589512 616.872 0.45814 616.96 0.347539 617.07C0.236938 617.181 0.14931 617.312 0.0896659 617.457C0.0300216 617.601 -0.000455497 617.756 5.26985e-06 617.913Z" fill="#CCCCCC"/>
<path d="M471.059 47.3134H189.539C189.274 47.3134 189.019 47.208 188.832 47.0205C188.644 46.833 188.539 46.5786 188.539 46.3134C188.539 46.0482 188.644 45.7938 188.832 45.6063C189.019 45.4187 189.274 45.3134 189.539 45.3134H469.939C470.319 45.9734 470.689 46.6434 471.059 47.3134Z" fill="#F2F2F2"/>
<path d="M247.112 17.2901C251.782 17.2901 255.568 13.4196 255.568 8.64507C255.568 3.87053 251.782 0 247.112 0C242.441 0 238.655 3.87053 238.655 8.64507C238.655 13.4196 242.441 17.2901 247.112 17.2901Z" fill="#F2F2F2"/>
<path d="M276.326 17.2901C280.996 17.2901 284.782 13.4196 284.782 8.64507C284.782 3.87053 280.996 0 276.326 0C271.655 0 267.869 3.87053 267.869 8.64507C267.869 13.4196 271.655 17.2901 276.326 17.2901Z" fill="#F2F2F2"/>
<path d="M309.637 15.4779C309.504 15.4781 309.372 15.4515 309.249 15.3999C309.126 15.3482 309.015 15.2725 308.922 15.1771L303.216 9.34411C303.033 9.1573 302.931 8.9063 302.931 8.64489C302.931 8.38348 303.033 8.13245 303.216 7.94565L308.922 2.11313C309.108 1.92644 309.36 1.82076 309.624 1.81908C309.888 1.81741 310.141 1.91988 310.33 2.10419C310.518 2.28851 310.626 2.53978 310.63 2.80333C310.634 3.06689 310.534 3.32143 310.352 3.51159L305.33 8.64489L310.352 13.7787C310.489 13.9194 310.583 14.0976 310.619 14.291C310.656 14.4843 310.635 14.6842 310.559 14.8657C310.482 15.0471 310.354 15.202 310.19 15.3109C310.026 15.4198 309.834 15.4779 309.637 15.4779Z" fill="#F2F2F2"/>
<path d="M319.225 15.4779C319.028 15.4779 318.836 15.4197 318.672 15.3108C318.508 15.2019 318.38 15.0471 318.304 14.8656C318.227 14.6842 318.206 14.4843 318.243 14.2909C318.28 14.0976 318.373 13.9194 318.511 13.7786L323.532 8.64486L318.511 3.51155C318.328 3.32138 318.228 3.06687 318.232 2.80338C318.236 2.53989 318.345 2.28871 318.533 2.10443C318.721 1.92016 318.975 1.8177 319.238 1.81932C319.502 1.82095 319.754 1.92654 319.94 2.11312L325.646 7.94564C325.829 8.13244 325.931 8.38345 325.931 8.64486C325.931 8.90627 325.829 9.15727 325.646 9.34407L319.94 15.1771C319.847 15.2724 319.736 15.3482 319.613 15.3998C319.49 15.4515 319.359 15.478 319.225 15.4779Z" fill="#F2F2F2"/>
<path d="M427.309 5.54337H342.499C341.791 5.54337 341.112 5.82466 340.611 6.32538C340.11 6.8261 339.829 7.50524 339.829 8.21336C339.829 8.92149 340.11 9.60061 340.611 10.1013C341.112 10.6021 341.791 10.8834 342.499 10.8834H427.309C428.017 10.8834 428.696 10.6021 429.197 10.1013C429.698 9.60061 429.979 8.92149 429.979 8.21336C429.979 7.50524 429.698 6.8261 429.197 6.32538C428.696 5.82466 428.017 5.54337 427.309 5.54337Z" fill="#F2F2F2"/>
<path d="M415.671 214.856C427.143 214.856 436.443 205.556 436.443 194.083C436.443 182.611 427.143 173.311 415.671 173.311C404.198 173.311 394.898 182.611 394.898 194.083C394.898 205.556 404.198 214.856 415.671 214.856Z" fill="#F2F2F2"/>
<path d="M463.46 242.068L370.46 241.738L399.786 234.406L403.439 222.346L431.556 222.187L439.975 234.113L461.236 239.624L463.167 240.125L463.46 242.068Z" fill="#F2F2F2"/>
<path d="M403.865 207.346C408.323 203.862 402.229 188.534 409.59 191.806C409.59 191.806 418.587 186.08 420.395 189.843C422.488 194.199 429.932 192.223 434.504 190.685C434.144 189.85 433.889 188.974 433.743 188.076C434.587 188.741 435.482 189.34 436.418 189.867C437.046 189.532 437.602 189.076 438.054 188.526C438.5 188.015 438.779 187.38 438.853 186.706C438.928 186.032 438.794 185.351 438.471 184.755C437.71 183.586 436.14 183.226 435.215 182.187C435.109 182.041 435.039 181.871 435.012 181.692C434.985 181.513 435.002 181.331 435.062 181.16C435.172 180.742 435.189 180.305 435.111 179.88C435.033 179.455 434.862 179.052 434.61 178.7C434.359 178.349 434.033 178.057 433.656 177.846C433.279 177.635 432.86 177.51 432.428 177.479C432.255 177.484 432.083 177.447 431.927 177.37C431.152 176.895 430.435 176.329 429.793 175.685C430.864 175.734 429.554 169.175 418.931 170.418C416.256 170.319 414.86 173.269 412.226 173.735C405.842 170.087 400.144 175.35 397.371 180.38C394.598 185.41 391.597 201.621 403.865 207.346Z" fill="#F2F2F2"/>
</g>
<g clip-path="url(#clip1_1_102)">
<path d="M841.405 471.609C840.121 470.867 839.017 469.853 838.168 468.638C837.319 467.424 836.746 466.037 836.491 464.578C836.236 463.118 836.304 461.62 836.69 460.189C837.076 458.758 837.771 457.43 838.727 456.296L828.157 379.033L850.176 380.114L853.633 455.477C855.43 457.207 856.531 459.538 856.725 462.026C856.919 464.514 856.194 466.987 854.686 468.975C853.179 470.964 850.994 472.331 848.546 472.816C846.098 473.301 843.557 472.872 841.405 471.609Z" fill="#A0616A"/>
<path d="M853.198 381.138C852.746 381.669 852.168 382.078 851.517 382.327L831.729 389.879C830.735 390.258 829.633 390.242 828.651 389.834C827.668 389.426 826.88 388.657 826.448 387.685L808.919 348.292C807.236 344.637 806.949 340.493 808.114 336.643C808.974 333.894 810.56 331.429 812.705 329.506C814.849 327.583 817.473 326.275 820.299 325.719C822.472 325.271 824.717 325.303 826.877 325.812C829.465 326.388 831.868 327.602 833.869 329.341C835.87 331.081 837.406 333.292 838.338 335.775L853.923 376.975C854.184 377.67 854.255 378.423 854.127 379.155C854 379.887 853.679 380.571 853.198 381.138Z" fill="#CCCCCC"/>
<path d="M750.082 660.193H736.391L731.424 607.136L750.082 607.386V660.193Z" fill="#A0616A"/>
<path d="M726.612 656.282H753.012V672.907H709.984C709.984 668.497 711.735 664.269 714.853 661.151C717.971 658.033 722.199 656.282 726.609 656.282H726.612Z" fill="#2F2E41"/>
<path d="M813.735 660.194H800.044L793.531 607.386H813.737L813.735 660.194Z" fill="#A0616A"/>
<path d="M790.266 656.282H816.666V672.907H773.638C773.638 668.497 775.389 664.269 778.507 661.151C781.625 658.033 785.853 656.282 790.263 656.282H790.266Z" fill="#2F2E41"/>
<path d="M815.457 641.405L793.957 639.813C792.734 639.722 791.585 639.188 790.728 638.309C789.87 637.431 789.364 636.27 789.302 635.045L784.508 535.957C784.462 535.006 784.071 534.105 783.408 533.422C782.745 532.739 781.855 532.322 780.906 532.248C779.958 532.175 779.014 532.45 778.254 533.022C777.493 533.594 776.968 534.424 776.775 535.357L756.775 632.968C756.528 634.168 755.85 635.238 754.87 635.974C753.889 636.711 752.674 637.064 751.452 636.968L732.013 635.413C731.356 635.36 730.715 635.178 730.127 634.878C729.539 634.578 729.017 634.165 728.589 633.662C728.161 633.16 727.836 632.578 727.633 631.951C727.43 631.323 727.352 630.661 727.405 630.003C727.407 629.97 727.41 629.937 727.413 629.905L745.447 449.579C745.517 448.874 745.736 448.192 746.088 447.577C746.441 446.963 746.919 446.43 747.492 446.014C748.065 445.597 748.72 445.307 749.413 445.161C750.106 445.015 750.822 445.018 751.514 445.169L820.088 460.076C821.223 460.325 822.238 460.959 822.959 461.87C823.68 462.781 824.064 463.914 824.046 465.076L820.853 636.487C820.827 637.802 820.289 639.054 819.352 639.976C818.415 640.897 817.154 641.416 815.84 641.419C815.712 641.418 815.585 641.414 815.457 641.405Z" fill="#2F2E41"/>
<path d="M796.645 298.806C811.794 298.806 824.073 286.526 824.073 271.378C824.073 256.229 811.794 243.95 796.645 243.95C781.497 243.95 769.217 256.229 769.217 271.378C769.217 286.526 781.497 298.806 796.645 298.806Z" fill="#A0616A"/>
<path d="M754.09 463.487C751.452 461.122 749.358 458.213 747.952 454.962C746.546 451.71 745.861 448.193 745.945 444.652C745.945 405.23 780.068 317.152 781.137 314.409C781.237 313.747 782.136 313.461 786.864 310.27C791.592 307.079 798.407 306.586 807.122 308.812C808.007 309.038 808.814 309.504 809.454 310.157C810.094 310.811 810.542 311.627 810.751 312.518L812.372 314.86C812.513 315.454 812.792 316.007 813.186 316.473C813.581 316.94 814.079 317.308 814.642 317.547C821.67 320.508 844.01 334.162 836.397 385.547C829.326 433.28 826.456 461.347 825.551 471.206C825.444 472.375 824.931 473.47 824.1 474.299C823.269 475.129 822.173 475.641 821.004 475.746C817.558 476.054 811.644 476.465 804.604 476.465C788.269 476.46 765.872 474.26 754.09 463.487Z" fill="#CCCCCC"/>
<path d="M721.315 448.881C720.662 447.551 720.309 446.093 720.281 444.611C720.253 443.129 720.55 441.659 721.152 440.305C721.753 438.95 722.645 437.744 723.763 436.771C724.881 435.799 726.199 435.083 727.623 434.674L761.899 364.627L779.581 377.795L740.459 442.299C740.988 444.739 740.604 447.287 739.378 449.462C738.153 451.636 736.173 453.285 733.813 454.097C731.453 454.908 728.877 454.826 726.573 453.864C724.27 452.903 722.4 451.13 721.317 448.881H721.315Z" fill="#A0616A"/>
<path d="M781.517 380.332C780.846 380.523 780.138 380.54 779.459 380.384L758.819 375.629C757.782 375.39 756.876 374.763 756.288 373.877C755.699 372.991 755.473 371.913 755.656 370.865L763.056 328.387C763.694 324.414 765.765 320.814 768.878 318.265C771.124 316.462 773.815 315.299 776.667 314.897C779.519 314.496 782.426 314.871 785.083 315.984C787.136 316.823 788.983 318.1 790.493 319.726C792.32 321.647 793.64 323.993 794.332 326.553C795.024 329.112 795.067 331.804 794.458 334.385L784.44 377.277C784.27 378.001 783.909 378.666 783.395 379.203C782.881 379.741 782.232 380.131 781.517 380.332Z" fill="#CCCCCC"/>
<path d="M790.224 296.16C788.889 294.798 787.903 293.133 787.351 291.308C786.799 289.483 786.696 287.551 787.052 285.677C788.008 280.677 788.57 277.403 788.677 276.212C789.041 272.139 784.923 268.841 780.849 268.312C780.691 268.291 780.56 268.278 780.45 268.269C780.55 268.369 780.665 268.475 780.763 268.569C781.537 269.296 782.5 270.2 782.271 271.134C782.133 271.696 781.619 272.096 780.7 272.353C774.328 274.136 769.42 272.499 765.255 267.198C764.084 265.691 763.279 263.933 762.904 262.063C761.412 254.743 765.386 248.503 768.984 244.558C771.951 241.305 776.761 237.358 782.826 237.018C787.542 236.755 793.151 239.469 794.826 244.36C795.617 243.187 796.671 242.216 797.903 241.522C799.136 240.827 800.513 240.429 801.925 240.36C805.146 240.29 808.315 241.171 811.037 242.894C824.337 250.512 830.052 268.66 823.518 282.524C819.408 291.245 810.503 297.736 800.279 299.466C799.639 299.575 798.991 299.63 798.341 299.631C796.824 299.628 795.322 299.32 793.926 298.724C792.53 298.128 791.269 297.257 790.216 296.164L790.224 296.16Z" fill="#2F2E41"/>
<path d="M464.659 433.57C464.083 432.2 463.117 431.029 461.882 430.203C460.646 429.376 459.196 428.93 457.709 428.92H318.984C316.99 428.921 315.078 429.713 313.668 431.123C312.258 432.533 311.466 434.445 311.464 436.439V611.939C311.466 613.934 312.258 615.846 313.668 617.256C315.078 618.666 316.99 619.458 318.984 619.46H457.714C459.708 619.457 461.619 618.664 463.029 617.254C464.439 615.844 465.232 613.933 465.234 611.939V436.439C465.238 435.454 465.044 434.479 464.664 433.57H464.659ZM463.559 611.939C463.558 613.49 462.941 614.977 461.844 616.074C460.747 617.171 459.26 617.788 457.709 617.79H318.984C317.433 617.789 315.946 617.173 314.849 616.076C313.752 614.979 313.135 613.492 313.134 611.941V436.441C313.137 434.89 313.754 433.403 314.85 432.306C315.947 431.21 317.434 430.593 318.984 430.59H457.714C458.883 430.595 460.023 430.947 460.99 431.603C461.958 432.258 462.707 433.187 463.144 434.271C463.23 434.486 463.303 434.707 463.364 434.93C463.497 435.423 463.564 435.931 463.564 436.441L463.559 611.939Z" fill="#3F3D56"/>
<path d="M435.709 470.355H393.924C393.037 470.355 392.187 470.002 391.56 469.375C390.933 468.748 390.581 467.898 390.581 467.012C390.581 466.125 390.933 465.275 391.56 464.648C392.187 464.021 393.037 463.669 393.924 463.669H435.709C436.596 463.669 437.446 464.021 438.073 464.648C438.7 465.275 439.052 466.125 439.052 467.012C439.052 467.898 438.7 468.748 438.073 469.375C437.446 470.002 436.596 470.355 435.709 470.355Z" fill="#3F3D56"/>
<path d="M435.709 487.905H393.924C393.037 487.905 392.187 487.552 391.56 486.925C390.933 486.298 390.581 485.448 390.581 484.562C390.581 483.675 390.933 482.825 391.56 482.198C392.187 481.571 393.037 481.219 393.924 481.219H435.709C436.596 481.219 437.446 481.571 438.073 482.198C438.7 482.825 439.052 483.675 439.052 484.562C439.052 485.448 438.7 486.298 438.073 486.925C437.446 487.552 436.596 487.905 435.709 487.905Z" fill="#3F3D56"/>
<path d="M372.483 497.898H341.946C340.949 497.896 339.993 497.5 339.288 496.795C338.583 496.09 338.187 495.134 338.185 494.137V458.101C338.187 457.103 338.583 456.147 339.288 455.442C339.993 454.737 340.949 454.341 341.946 454.34H372.483C373.481 454.341 374.437 454.737 375.142 455.442C375.847 456.147 376.243 457.103 376.244 458.101V494.137C376.243 495.134 375.847 496.09 375.142 496.795C374.437 497.5 373.481 497.896 372.483 497.898Z" fill="#6C63FF"/>
<path d="M435.419 523.841H340.983C340.097 523.841 339.247 523.488 338.62 522.861C337.993 522.234 337.64 521.384 337.64 520.498C337.64 519.611 337.993 518.761 338.62 518.134C339.247 517.507 340.097 517.155 340.983 517.155H435.419C435.858 517.155 436.293 517.241 436.699 517.409C437.104 517.577 437.473 517.823 437.783 518.134C438.094 518.444 438.34 518.813 438.508 519.218C438.676 519.624 438.762 520.059 438.762 520.498C438.762 520.937 438.676 521.371 438.508 521.777C438.34 522.182 438.094 522.551 437.783 522.861C437.473 523.172 437.104 523.418 436.699 523.586C436.293 523.754 435.858 523.841 435.419 523.841Z" fill="#CCCCCC"/>
<path d="M435.419 541.391H340.983C340.097 541.391 339.247 541.038 338.62 540.411C337.993 539.784 337.64 538.934 337.64 538.048C337.64 537.161 337.993 536.311 338.62 535.684C339.247 535.057 340.097 534.705 340.983 534.705H435.419C436.306 534.705 437.156 535.057 437.783 535.684C438.41 536.311 438.762 537.161 438.762 538.048C438.762 538.934 438.41 539.784 437.783 540.411C437.156 541.038 436.306 541.391 435.419 541.391Z" fill="#CCCCCC"/>
<path d="M435.419 558.941H340.983C340.097 558.941 339.247 558.588 338.62 557.961C337.993 557.334 337.64 556.484 337.64 555.598C337.64 554.711 337.993 553.861 338.62 553.234C339.247 552.607 340.097 552.255 340.983 552.255H435.419C436.306 552.255 437.156 552.607 437.783 553.234C438.41 553.861 438.762 554.711 438.762 555.598C438.762 556.484 438.41 557.334 437.783 557.961C437.156 558.588 436.306 558.941 435.419 558.941Z" fill="#CCCCCC"/>
<path d="M435.419 576.491H340.983C340.097 576.491 339.247 576.138 338.62 575.511C337.993 574.884 337.64 574.034 337.64 573.148C337.64 572.261 337.993 571.411 338.62 570.784C339.247 570.157 340.097 569.805 340.983 569.805H435.419C436.306 569.805 437.156 570.157 437.783 570.784C438.41 571.411 438.762 572.261 438.762 573.148C438.762 574.034 438.41 574.884 437.783 575.511C437.156 576.138 436.306 576.491 435.419 576.491Z" fill="#CCCCCC"/>
<path d="M435.419 594.041H340.983C340.097 594.041 339.247 593.688 338.62 593.061C337.993 592.434 337.64 591.584 337.64 590.698C337.64 589.811 337.993 588.961 338.62 588.334C339.247 587.707 340.097 587.355 340.983 587.355H435.419C436.306 587.355 437.156 587.707 437.783 588.334C438.41 588.961 438.762 589.811 438.762 590.698C438.762 591.584 438.41 592.434 437.783 593.061C437.156 593.688 436.306 594.041 435.419 594.041Z" fill="#CCCCCC"/>
<path d="M669.005 674.462H864.005C864.27 674.462 864.524 674.356 864.712 674.169C864.899 673.981 865.005 673.727 865.005 673.462C865.005 673.196 864.899 672.942 864.712 672.754C864.524 672.567 864.27 672.462 864.005 672.462H669.005C668.739 672.462 668.485 672.567 668.297 672.754C668.11 672.942 668.005 673.196 668.005 673.462C668.005 673.727 668.11 673.981 668.297 674.169C668.485 674.356 668.739 674.462 669.005 674.462Z" fill="#3F3D56"/>
<path d="M390.697 386.635C408.514 386.635 422.958 372.19 422.958 354.373C422.958 336.555 408.514 322.111 390.697 322.111C372.879 322.111 358.434 336.555 358.434 354.373C358.434 372.19 372.879 386.635 390.697 386.635Z" fill="#6C63FF"/>
<path d="M387.5 366.68C386.774 366.681 386.067 366.446 385.487 366.011L385.451 365.983L377.869 360.184C377.517 359.914 377.222 359.579 377 359.196C376.778 358.812 376.634 358.389 376.576 357.95C376.517 357.511 376.546 357.065 376.66 356.638C376.775 356.21 376.972 355.809 377.242 355.457C377.511 355.106 377.847 354.811 378.23 354.59C378.614 354.368 379.037 354.224 379.476 354.167C379.915 354.109 380.361 354.138 380.789 354.253C381.217 354.368 381.617 354.566 381.969 354.835L386.879 358.602L398.485 343.461C399.028 342.753 399.831 342.289 400.716 342.172C401.602 342.055 402.498 342.294 403.207 342.838L403.208 342.839L403.136 342.939L403.21 342.839C403.918 343.383 404.381 344.186 404.498 345.071C404.615 345.957 404.375 346.852 403.833 347.562L390.183 365.362C389.867 365.772 389.461 366.104 388.996 366.331C388.531 366.559 388.02 366.677 387.503 366.676L387.5 366.68Z" fill="white"/>
<path d="M598.296 339.635C610.371 339.635 620.159 329.847 620.159 317.773C620.159 305.698 610.371 295.911 598.296 295.911C586.222 295.911 576.434 305.698 576.434 317.773C576.434 329.847 586.222 339.635 598.296 339.635Z" fill="#CCCCCC"/>
<path d="M596.129 326.112C595.638 326.112 595.159 325.953 594.765 325.659L594.741 325.641L589.603 321.707C589.137 321.334 588.835 320.793 588.763 320.2C588.69 319.607 588.853 319.009 589.216 318.535C589.58 318.061 590.114 317.748 590.706 317.663C591.297 317.578 591.898 317.729 592.379 318.083L595.707 320.635L603.571 310.379C603.94 309.898 604.484 309.584 605.084 309.505C605.684 309.425 606.291 309.588 606.771 309.956L606.722 310.023L606.772 309.958C607.252 310.326 607.566 310.87 607.645 311.47C607.724 312.07 607.562 312.677 607.194 313.158L597.944 325.222C597.731 325.5 597.455 325.725 597.141 325.879C596.826 326.034 596.479 326.114 596.128 326.113L596.129 326.112Z" fill="white"/>
<path d="M659.731 369.033C659.277 367.955 658.518 367.034 657.546 366.384C656.574 365.733 655.433 365.382 654.263 365.374H545.102C543.533 365.374 542.029 365.998 540.919 367.107C539.81 368.217 539.186 369.722 539.185 371.291V509.384C539.186 510.953 539.81 512.457 540.919 513.567C542.029 514.676 543.533 515.3 545.102 515.301H654.263C655.832 515.298 657.336 514.674 658.445 513.565C659.554 512.456 660.178 510.952 660.18 509.384V371.291C660.183 370.515 660.03 369.748 659.731 369.033ZM658.866 509.385C658.864 510.604 658.379 511.772 657.517 512.635C656.654 513.497 655.486 513.982 654.266 513.985H545.102C544.498 513.985 543.9 513.866 543.342 513.634C542.784 513.403 542.277 513.064 541.85 512.637C541.423 512.21 541.084 511.703 540.853 511.145C540.621 510.587 540.502 509.989 540.502 509.385V371.291C540.505 370.071 540.99 368.903 541.852 368.04C542.715 367.178 543.883 366.693 545.102 366.691H654.263C655.183 366.694 656.081 366.972 656.842 367.489C657.603 368.005 658.193 368.737 658.536 369.591C658.603 369.76 658.661 369.934 658.71 370.11C658.814 370.497 658.867 370.896 658.867 371.298L658.866 509.385Z" fill="#CCCCCC"/>
<path d="M636.949 397.978H604.069C603.371 397.978 602.702 397.7 602.208 397.207C601.715 396.714 601.438 396.045 601.438 395.347C601.438 394.649 601.715 393.98 602.208 393.487C602.702 392.994 603.371 392.717 604.069 392.717H636.947C637.645 392.717 638.314 392.994 638.808 393.487C639.301 393.98 639.578 394.649 639.578 395.347C639.578 396.045 639.301 396.714 638.808 397.207C638.314 397.7 637.645 397.978 636.947 397.978H636.949Z" fill="#CCCCCC"/>
<path d="M636.949 411.788H604.069C603.371 411.788 602.702 411.51 602.208 411.017C601.715 410.524 601.438 409.855 601.438 409.157C601.438 408.459 601.715 407.79 602.208 407.297C602.702 406.804 603.371 406.527 604.069 406.527H636.947C637.645 406.527 638.314 406.804 638.808 407.297C639.301 407.79 639.578 408.459 639.578 409.157C639.578 409.855 639.301 410.524 638.808 411.017C638.314 411.51 637.645 411.788 636.947 411.788H636.949Z" fill="#CCCCCC"/>
<path d="M587.197 419.651H563.169C562.385 419.65 561.633 419.338 561.078 418.783C560.523 418.228 560.211 417.476 560.21 416.692V388.337C560.211 387.552 560.523 386.8 561.078 386.245C561.633 385.69 562.385 385.378 563.169 385.378H587.197C587.982 385.379 588.734 385.691 589.289 386.245C589.843 386.8 590.155 387.552 590.156 388.337V416.692C590.156 417.476 589.844 418.228 589.289 418.783C588.734 419.338 587.982 419.65 587.197 419.651Z" fill="#CCCCCC"/>
<path d="M636.72 440.064H562.413C561.715 440.064 561.046 439.786 560.552 439.293C560.059 438.8 559.782 438.131 559.782 437.433C559.782 436.735 560.059 436.066 560.552 435.573C561.046 435.08 561.715 434.803 562.413 434.803H636.72C637.417 434.803 638.086 435.08 638.58 435.573C639.073 436.066 639.35 436.735 639.35 437.433C639.35 438.131 639.073 438.8 638.58 439.293C638.086 439.786 637.417 440.064 636.72 440.064Z" fill="#CCCCCC"/>
<path d="M636.72 453.878H562.413C561.715 453.878 561.046 453.6 560.552 453.107C560.059 452.614 559.782 451.945 559.782 451.247C559.782 450.549 560.059 449.88 560.552 449.387C561.046 448.894 561.715 448.617 562.413 448.617H636.72C637.417 448.617 638.086 448.894 638.58 449.387C639.073 449.88 639.35 450.549 639.35 451.247C639.35 451.945 639.073 452.614 638.58 453.107C638.086 453.6 637.417 453.878 636.72 453.878Z" fill="#CCCCCC"/>
<path d="M636.72 467.683H562.413C561.715 467.683 561.046 467.405 560.552 466.912C560.059 466.419 559.782 465.75 559.782 465.052C559.782 464.354 560.059 463.685 560.552 463.192C561.046 462.699 561.715 462.422 562.413 462.422H636.72C637.417 462.422 638.086 462.699 638.58 463.192C639.073 463.685 639.35 464.354 639.35 465.052C639.35 465.75 639.073 466.419 638.58 466.912C638.086 467.405 637.417 467.683 636.72 467.683Z" fill="#CCCCCC"/>
<path d="M636.72 481.495H562.413C561.715 481.495 561.046 481.218 560.552 480.725C560.059 480.232 559.782 479.563 559.782 478.865C559.782 478.167 560.059 477.498 560.552 477.005C561.046 476.512 561.715 476.235 562.413 476.235H636.72C637.417 476.235 638.086 476.512 638.58 477.005C639.073 477.498 639.35 478.167 639.35 478.865C639.35 479.563 639.073 480.232 638.58 480.725C638.086 481.218 637.417 481.495 636.72 481.495Z" fill="#CCCCCC"/>
<path d="M636.72 495.302H562.413C561.715 495.302 561.046 495.024 560.552 494.531C560.059 494.038 559.782 493.369 559.782 492.671C559.782 491.973 560.059 491.304 560.552 490.811C561.046 490.318 561.715 490.041 562.413 490.041H636.72C637.417 490.041 638.086 490.318 638.58 490.811C639.073 491.304 639.35 491.973 639.35 492.671C639.35 493.369 639.073 494.038 638.58 494.531C638.086 495.024 637.417 495.302 636.72 495.302Z" fill="#CCCCCC"/>
<path d="M521.791 515.878H675.226C675.434 515.878 675.634 515.795 675.782 515.647C675.93 515.499 676.012 515.299 676.012 515.091C676.012 514.882 675.93 514.682 675.782 514.534C675.634 514.386 675.434 514.304 675.226 514.304H521.791C521.688 514.303 521.586 514.323 521.49 514.362C521.394 514.401 521.307 514.458 521.234 514.531C521.16 514.604 521.102 514.69 521.062 514.785C521.022 514.88 521.001 514.983 521 515.086C520.999 515.189 521.019 515.292 521.058 515.388C521.097 515.483 521.155 515.57 521.227 515.644C521.3 515.717 521.386 515.776 521.482 515.816C521.577 515.856 521.679 515.877 521.783 515.878H521.791Z" fill="#CCCCCC"/>
<path d="M290.004 620.059H485.004C485.27 620.059 485.524 619.954 485.712 619.766C485.899 619.578 486.004 619.324 486.004 619.059C486.004 618.794 485.899 618.539 485.712 618.352C485.524 618.164 485.27 618.059 485.004 618.059H290.004C289.739 618.059 289.485 618.164 289.297 618.352C289.11 618.539 289.004 618.794 289.004 619.059C289.004 619.324 289.11 619.578 289.297 619.766C289.485 619.954 289.739 620.059 290.004 620.059Z" fill="#3F3D56"/>
</g>
<defs>
<clipPath id="clip0_1_102">
<rect width="518.737" height="619.103" fill="white"/>
</clipPath>
<clipPath id="clip1_1_102">
<rect width="836.004" height="437.462" fill="white" transform="translate(101 238)"/>
</clipPath>
</defs>
</svg>
