<svg width="92" height="160" viewBox="0 0 92 160" fill="none" xmlns="http://www.w3.org/2000/svg">
<path d="M64.25 84.375L64.1875 100.812C64.1875 107.688 64.5417 111.833 65.25 113.25C65.9583 114.625 66.7917 115.458 67.75 115.75C68.7083 116 69.9375 116.125 71.4375 116.125C72.9375 116.125 74.2917 116.021 75.5 115.812C76.75 115.562 77.9167 115.25 79 114.875C80.0833 114.5 81.125 114.083 82.125 113.625L85.1875 112.312C85.8958 112.062 86.6875 112.792 87.5625 114.5C87.8125 114.958 87.9375 115.5 87.9375 116.125C87.9375 116.708 87.6875 117.479 87.1875 118.438C86.6875 119.396 85.7083 120.5 84.25 121.75C82.8333 122.958 81.1667 124.042 79.25 125C75.0833 127.125 71.3333 128.188 68 128.188C64.7083 128.188 62.0208 128 59.9375 127.625C57.8542 127.25 56.0833 126.5 54.625 125.375C51.625 123.042 50.125 118.771 50.125 112.562V63.375H43.9375C42.6458 63.375 41.7083 62.9583 41.125 62.125C40.125 60.8333 39.625 59.75 39.625 58.875C39.625 57.4167 39.9792 56.6042 40.6875 56.4375C47.3125 55.3125 52 50.3958 54.75 41.6875C55.5417 39.0625 56.1667 35.9583 56.625 32.375C58.625 32.0417 60.125 31.875 61.125 31.875C62.1667 31.875 63.0625 32.3958 63.8125 33.4375C64.5625 34.4792 64.9167 35.6875 64.875 37.0625C64.875 38.4375 64.8542 39.7292 64.8125 40.9375C64.7708 42.1458 64.7292 43.4583 64.6875 44.875L64.4375 53.625H86.0625C86.6042 54.5833 86.875 55.6042 86.875 56.6875V58.625C86.875 60.375 85.9375 61.8125 84.0625 62.9375C82.1875 64.0208 80.1042 64.5625 77.8125 64.5625C75.5625 64.5625 73.9375 64.5417 72.9375 64.5C71.9792 64.4167 71.0417 64.3333 70.125 64.25L67.375 63.875C66.4167 63.7917 65.3958 63.7083 64.3125 63.625V64.3125L64.25 84.375Z" fill="url(#paint0_linear_3_2)"/>
<path d="M41.3125 127.312C40.4375 127.104 39.1042 127 37.3125 127H16.125C12.125 127 9.5625 126.292 8.4375 124.875C7.97917 124.333 7.75 123.708 7.75 123C7.75 121.25 8.08333 119.958 8.75 119.125C9.75 119.458 10.6667 119.625 11.5 119.625C12.375 119.625 13.1042 119.521 13.6875 119.312C14.2708 119.062 14.7292 118.667 15.0625 118.125C15.6458 117.125 15.9375 115.167 15.9375 112.25V71.375C15.9375 67.4583 15.2083 65.0208 13.75 64.0625C13.1667 63.6875 12.3958 63.5 11.4375 63.5C10.4792 63.5 9.70833 63.6458 9.125 63.9375C8.58333 64.2292 8.125 64.4375 7.75 64.5625C7.41667 64.6875 7.125 64.6875 6.875 64.5625C6.625 64.3958 6.375 64.1667 6.125 63.875C5.5 63.125 5.1875 62.4167 5.1875 61.75C5.1875 61.0417 5.4375 60.2917 5.9375 59.5C6.47917 58.6667 7.33333 57.7292 8.5 56.6875C9.66667 55.6042 11 54.625 12.5 53.75C15.875 51.7917 19.25 50.8125 22.625 50.8125C26.4583 50.8125 28.7292 53.3125 29.4375 58.3125C29.6458 59.7708 29.7708 61.2917 29.8125 62.875C35.8958 57.5 42.1667 53.8125 48.625 51.8125C50.7917 51.1458 52.75 50.8125 54.5 50.8125C56.2917 50.8125 57.75 51.0625 58.875 51.5625C60.0417 52.0625 60.9583 52.75 61.625 53.625C62.875 55.3333 63.5 57.5208 63.5 60.1875C63.5 62.8542 63.375 64.9792 63.125 66.5625C62.875 68.1458 62.5625 69.5417 62.1875 70.75C61.4375 73.2083 60.7292 74.7708 60.0625 75.4375C58.8958 76.6458 57.3333 77.25 55.375 77.25C53.375 77.25 52.375 76.6667 52.375 75.5C52.375 71.0417 52.1875 68.1875 51.8125 66.9375C51.1042 64.6458 49.7708 63.5 47.8125 63.5C45.8542 63.5 44.0833 63.7292 42.5 64.1875C40.9167 64.6042 39.375 65.1875 37.875 65.9375C34.8333 67.4375 32.1667 69.375 29.875 71.75V113.312C30 116.604 31.4375 118.604 34.1875 119.312C34.9792 119.521 35.875 119.708 36.875 119.875C37.875 120.042 38.7292 120.25 39.4375 120.5C40.1875 120.708 40.7708 120.958 41.1875 121.25C41.8958 121.792 42.25 122.667 42.25 123.875C42.25 125.375 41.9375 126.521 41.3125 127.312Z" fill="url(#paint1_linear_3_2)"/>
<defs>
<linearGradient id="paint0_linear_3_2" x1="64" y1="0" x2="64" y2="160" gradientUnits="userSpaceOnUse">
<stop stop-color="#5EA2EF"/>
<stop offset="1" stop-color="#0072F5"/>
</linearGradient>
<linearGradient id="paint1_linear_3_2" x1="33" y1="0" x2="33" y2="160" gradientUnits="userSpaceOnUse">
<stop stop-color="#FF1CF7"/>
<stop offset="1" stop-color="#B249F8"/>
</linearGradient>
</defs>
</svg>
